<?xml version="1.0" encoding="UTF-8"?>
<svg width="76px" height="76px" viewBox="0 0 76 76" version="1.1" xmlns="http://www.w3.org/2000/svg" xmlns:xlink="http://www.w3.org/1999/xlink">
    <title>Untitled 2</title>
    <g id="Page-1" stroke="none" stroke-width="1" fill="none" fill-rule="evenodd">
        <g id="noun-d12-4570606" transform="translate(2.03, 0.68)" fill="#000000" fill-rule="nonzero">
            <path d="M70.47,24.87 L58.05,7.77 C57.68,7.26 57.15,6.88 56.55,6.68 L36.45,0.15 C35.85,-0.05 35.2,-0.05 34.6,0.15 L14.5,6.68 C13.9,6.88 13.37,7.26 13,7.77 L0.57,24.87 C0.2,25.38 0,26 0,26.63 L0,47.76 C0,48.39 0.2,49.01 0.57,49.52 L12.99,66.62 C13.36,67.13 13.89,67.51 14.49,67.71 L34.59,74.24 C34.89,74.34 35.2,74.39 35.52,74.39 C35.84,74.39 36.15,74.34 36.45,74.24 L56.55,67.71 C57.15,67.51 57.68,67.13 58.05,66.62 L70.47,49.52 C70.84,49.01 71.04,48.39 71.04,47.76 L71.04,26.63 C71.04,26 70.84,25.38 70.47,24.87 Z M63.41,25.36 L54.07,29.37 L38.52,18.07 L38.52,7.14 L53.76,12.09 L63.41,25.36 Z M45.2686535,52.235 L25.7713465,52.235 L19.7498025,33.6964004 L35.52,22.235 L51.2901975,33.6964004 L45.2686535,52.235 Z M17.27,12.09 L32.51,7.14 L32.51,18.08 L16.97,29.37 L7.63,25.36 L17.27,12.09 Z M6,46.79 L6,31.19 L14.92,35.02 L20.93,53.51 L15.58,59.97 L6,46.79 Z M35.52,68.24 L20.55,63.38 L25.7,57.16 L45.33,57.16 L50.48,63.38 L35.52,68.24 Z M55.46,59.97 L50.11,53.51 L56.12,35.02 L65.04,31.19 L65.04,46.79 L55.46,59.97 Z" id="Shape"></path>
        </g>
    </g>
</svg>